<?xml version="1.0" encoding="UTF-8"?>
<svg xmlns="http://www.w3.org/2000/svg" xmlns:xlink="http://www.w3.org/1999/xlink" width="375pt" height="374.999991pt" viewBox="0 0 375 374.999991" version="1.2">
<defs>
<clipPath id="clip1">
  <path d="M 75 96 L 301 96 L 301 271 L 75 271 Z M 75 96 "/>
</clipPath>
<clipPath id="clip2">
  <path d="M 57.417969 115.507812 L 286.722656 77.105469 L 317.324219 259.808594 L 88.019531 298.214844 Z M 57.417969 115.507812 "/>
</clipPath>
<clipPath id="clip3">
  <path d="M 57.417969 115.507812 L 286.722656 77.105469 L 317.324219 259.808594 L 88.019531 298.214844 Z M 57.417969 115.507812 "/>
</clipPath>
<clipPath id="clip4">
  <path d="M 57.417969 115.507812 L 286.425781 77.15625 L 317.070312 260.136719 L 88.066406 298.492188 Z M 57.417969 115.507812 "/>
</clipPath>
<clipPath id="clip5">
  <path d="M 140 103 L 281 103 L 281 167 L 140 167 Z M 140 103 "/>
</clipPath>
<clipPath id="clip6">
  <path d="M 57.417969 115.507812 L 286.722656 77.105469 L 317.324219 259.808594 L 88.019531 298.214844 Z M 57.417969 115.507812 "/>
</clipPath>
<clipPath id="clip7">
  <path d="M 57.417969 115.507812 L 286.722656 77.105469 L 317.324219 259.808594 L 88.019531 298.214844 Z M 57.417969 115.507812 "/>
</clipPath>
<clipPath id="clip8">
  <path d="M 57.417969 115.507812 L 286.425781 77.15625 L 317.070312 260.136719 L 88.066406 298.492188 Z M 57.417969 115.507812 "/>
</clipPath>
<clipPath id="clip9">
  <path d="M 75 96 L 302 96 L 302 271 L 75 271 Z M 75 96 "/>
</clipPath>
<clipPath id="clip10">
  <path d="M 57.417969 115.507812 L 286.722656 77.105469 L 317.324219 259.808594 L 88.019531 298.214844 Z M 57.417969 115.507812 "/>
</clipPath>
<clipPath id="clip11">
  <path d="M 57.417969 115.507812 L 286.722656 77.105469 L 317.324219 259.808594 L 88.019531 298.214844 Z M 57.417969 115.507812 "/>
</clipPath>
<clipPath id="clip12">
  <path d="M 57.417969 115.507812 L 286.425781 77.15625 L 317.070312 260.136719 L 88.066406 298.492188 Z M 57.417969 115.507812 "/>
</clipPath>
</defs>
<g id="surface1">
<rect x="0" y="0" width="375" height="374.999991" style="fill:rgb(100%,100%,100%);fill-opacity:1;stroke:none;"/>
<rect x="0" y="0" width="375" height="374.999991" style="fill:rgb(100%,100%,100%);fill-opacity:1;stroke:none;"/>
<rect x="0" y="0" width="375" height="374.999991" style="fill:rgb(100%,97.648621%,80.778503%);fill-opacity:1;stroke:none;"/>
<g clip-path="url(#clip1)" clip-rule="nonzero">
<g clip-path="url(#clip2)" clip-rule="nonzero">
<g clip-path="url(#clip3)" clip-rule="nonzero">
<g clip-path="url(#clip4)" clip-rule="nonzero">
<path style=" stroke:none;fill-rule:nonzero;fill:rgb(47.44873%,81.959534%,76.078796%);fill-opacity:1;" d="M 300.816406 166.988281 C 301.125 168.742188 300.875 170.550781 300.089844 172.148438 C 295.855469 180.738281 281.253906 210.824219 275.171875 228.886719 C 268.023438 250.117188 253.355469 270.8125 233.34375 270.277344 C 213.332031 269.742188 212.371094 244.484375 215 231.785156 C 216.214844 225.917969 217.683594 218.964844 217.609375 212.695312 C 217.886719 212.398438 218.027344 212.046875 218.082031 211.660156 C 217.785156 211.921875 217.613281 212.261719 217.609375 212.695312 C 209.992188 212.429688 204.09375 209.417969 203.328125 204.855469 L 201.488281 193.859375 C 196.152344 191.855469 189.792969 189.457031 183.804688 187.199219 C 180.617188 189.890625 175.777344 192.058594 170.152344 193 C 159.464844 194.789062 150.003906 191.488281 149.019531 185.625 L 148.988281 185.417969 C 148.960938 185.433594 148.9375 185.453125 148.910156 185.472656 C 145.355469 188.097656 141.511719 191.417969 137.5 195.125 C 126.429688 205.355469 108.324219 219.75 91.152344 216.644531 C 73.980469 213.539062 70.757812 190.753906 83.601562 171.5625 C 96.441406 152.363281 120.996094 130.3125 125.273438 123.914062 C 129.554688 117.515625 136.332031 102.921875 156.242188 101.085938 C 159.003906 100.828125 161.429688 100.78125 163.578125 100.882812 C 163.582031 100.882812 163.582031 100.878906 163.582031 100.878906 C 164.234375 100.914062 171.324219 96.960938 171.324219 96.960938 C 171.324219 96.960938 183.535156 95.550781 188.175781 104.472656 L 188.910156 111.753906 L 260.457031 139.25 C 260.457031 139.25 264.929688 138.5 270.660156 138.804688 C 271.3125 138.835938 277.429688 134.636719 277.429688 134.636719 C 277.429688 134.636719 289.101562 133.003906 294.53125 142.488281 L 297.34375 155.566406 C 297.339844 155.515625 297.3125 155.480469 297.273438 155.445312 C 298.816406 158.550781 299.980469 162.242188 300.816406 166.988281 "/>
</g>
</g>
</g>
</g>
<g clip-path="url(#clip5)" clip-rule="nonzero">
<g clip-path="url(#clip6)" clip-rule="nonzero">
<g clip-path="url(#clip7)" clip-rule="nonzero">
<g clip-path="url(#clip8)" clip-rule="nonzero">
<path style=" stroke:none;fill-rule:nonzero;fill:rgb(61.959839%,87.059021%,82.749939%);fill-opacity:1;" d="M 170.964844 115.289062 L 164.984375 113.046875 C 164.789062 112.976562 164.582031 112.949219 164.375 112.976562 L 157.675781 113.808594 C 156.960938 113.894531 156.457031 114.558594 156.558594 115.277344 L 156.796875 116.9375 C 156.867188 117.421875 157.199219 117.824219 157.660156 117.980469 L 164.253906 120.253906 C 165.003906 120.488281 165.820312 120.34375 166.441406 119.863281 L 171.128906 116.273438 C 171.488281 116 171.390625 115.429688 170.964844 115.289062 Z M 153.921875 112.226562 L 153.316406 109.636719 C 153.210938 109.179688 152.875 108.8125 152.433594 108.667969 L 146.402344 106.664062 C 146.21875 106.601562 146.015625 106.640625 145.867188 106.765625 L 140.300781 111.445312 C 139.957031 111.730469 140.070312 112.285156 140.496094 112.417969 L 147.527344 114.601562 C 147.726562 114.660156 147.9375 114.675781 148.140625 114.640625 L 152.84375 113.851562 C 153.605469 113.726562 154.097656 112.980469 153.921875 112.226562 Z M 153.4375 115.738281 L 146.9375 116.828125 C 146.710938 116.867188 146.5 116.964844 146.324219 117.109375 L 142.441406 120.378906 C 141.722656 120.984375 142.027344 122.160156 142.949219 122.339844 L 148.835938 123.492188 C 149.707031 123.664062 150.605469 123.429688 151.28125 122.855469 L 154.460938 120.167969 C 154.753906 119.917969 154.898438 119.53125 154.832031 119.152344 L 154.375 116.414062 C 154.300781 115.964844 153.878906 115.667969 153.4375 115.738281 Z M 168.335938 105.300781 L 162.234375 103.535156 C 161.875 103.433594 161.492188 103.515625 161.207031 103.753906 L 156.375 107.800781 C 156.085938 108.039062 155.960938 108.425781 156.050781 108.792969 L 156.785156 111.746094 C 156.871094 112.09375 157.203125 112.324219 157.554688 112.28125 L 163.21875 111.59375 C 163.5 111.558594 163.765625 111.441406 163.984375 111.257812 L 168.746094 107.242188 C 169.429688 106.664062 169.195312 105.554688 168.335938 105.300781 Z M 250.421875 159.007812 C 246.730469 159.625 244.011719 161.769531 244.351562 163.796875 C 244.691406 165.820312 247.957031 166.960938 251.652344 166.34375 C 255.34375 165.722656 258.0625 163.582031 257.722656 161.554688 C 257.382812 159.53125 254.113281 158.390625 250.421875 159.007812 Z M 273.277344 155.734375 C 269.585938 156.355469 266.867188 158.496094 267.207031 160.523438 C 267.546875 162.546875 270.8125 163.6875 274.507812 163.070312 C 278.199219 162.453125 280.917969 160.308594 280.578125 158.285156 C 280.238281 156.257812 276.96875 155.117188 273.277344 155.734375 Z M 270.945312 141.820312 C 267.253906 142.4375 264.535156 144.582031 264.875 146.605469 C 265.214844 148.632812 268.484375 149.773438 272.175781 149.152344 C 275.867188 148.535156 278.585938 146.390625 278.246094 144.367188 C 277.90625 142.339844 274.640625 141.199219 270.945312 141.820312 Z M 248.886719 145.511719 C 245.195312 146.132812 242.476562 148.273438 242.816406 150.300781 C 243.15625 152.324219 246.421875 153.46875 250.113281 152.847656 C 253.808594 152.230469 256.527344 150.085938 256.1875 148.0625 C 255.847656 146.035156 252.578125 144.894531 248.886719 145.511719 Z M 213.46875 146.59375 C 205.664062 147.902344 199.734375 152.144531 199.339844 156.441406 C 199.273438 157.171875 199.589844 157.886719 200.140625 158.367188 C 201.949219 159.949219 206.667969 163.945312 210.589844 166.117188 C 210.589844 166.117188 215.472656 168.574219 223.921875 164.050781 C 227.109375 159.984375 229.339844 155.035156 230.105469 153.214844 C 230.3125 152.722656 230.359375 152.167969 230.179688 151.664062 C 228.683594 147.496094 221.507812 145.246094 213.46875 146.59375 Z M 175.886719 132.523438 C 176.066406 133.023438 176.019531 133.582031 175.8125 134.070312 C 175.046875 135.890625 172.816406 140.839844 169.628906 144.910156 C 161.179688 149.429688 156.296875 146.972656 156.296875 146.972656 C 152.375 144.800781 147.65625 140.804688 145.847656 139.222656 C 145.296875 138.742188 144.980469 138.027344 145.046875 137.300781 C 145.441406 133.003906 151.371094 128.757812 159.175781 127.449219 C 167.214844 126.101562 174.390625 128.355469 175.886719 132.523438 "/>
</g>
</g>
</g>
</g>
<g clip-path="url(#clip9)" clip-rule="nonzero">
<g clip-path="url(#clip10)" clip-rule="nonzero">
<g clip-path="url(#clip11)" clip-rule="nonzero">
<g clip-path="url(#clip12)" clip-rule="nonzero">
<path style=" stroke:none;fill-rule:nonzero;fill:rgb(32.548523%,64.309692%,73.329163%);fill-opacity:1;" d="M 250.507812 159.515625 C 253.859375 158.953125 256.929688 159.925781 257.21875 161.640625 C 257.503906 163.351562 254.917969 165.273438 251.566406 165.835938 C 248.214844 166.398438 245.140625 165.421875 244.855469 163.710938 C 244.566406 161.996094 247.15625 160.074219 250.507812 159.515625 Z M 252.175781 169.476562 C 256.207031 168.800781 259.058594 166.441406 258.667969 164.097656 L 258.226562 161.472656 C 257.835938 159.132812 254.367188 157.824219 250.335938 158.5 C 246.304688 159.175781 243.457031 161.539062 243.847656 163.878906 L 244.289062 166.503906 C 244.679688 168.847656 248.144531 170.152344 252.175781 169.476562 Z M 273.363281 156.242188 C 276.710938 155.683594 279.785156 156.65625 280.074219 158.367188 C 280.359375 160.082031 277.769531 162.003906 274.421875 162.5625 C 271.070312 163.125 268 162.152344 267.710938 160.4375 C 267.425781 158.726562 270.011719 156.804688 273.363281 156.242188 Z M 275.03125 166.207031 C 279.0625 165.53125 281.914062 163.167969 281.519531 160.828125 L 281.082031 158.199219 C 280.6875 155.859375 277.226562 154.554688 273.191406 155.230469 C 269.160156 155.90625 266.308594 158.265625 266.703125 160.609375 L 267.140625 163.234375 C 267.535156 165.574219 271 166.882812 275.03125 166.207031 Z M 226.863281 153.574219 L 227.261719 154.519531 C 222.480469 156.554688 218.21875 157.695312 214.613281 158.300781 C 210 159.074219 206.460938 158.964844 204.269531 158.730469 L 204.375 157.710938 C 208.183594 158.117188 216.171875 158.121094 226.863281 153.574219 Z M 217.664062 136.574219 L 219.578125 134.75 L 224.25 137.710938 Z M 219.894531 133.738281 C 219.632812 133.570312 219.292969 133.605469 219.066406 133.816406 L 216.457031 136.308594 C 216.273438 136.484375 216.203125 136.753906 216.28125 137 C 216.355469 137.246094 216.558594 137.425781 216.8125 137.46875 L 225.800781 139.019531 C 225.878906 139.03125 225.953125 139.03125 226.027344 139.019531 C 226.257812 138.980469 226.457031 138.824219 226.542969 138.59375 C 226.660156 138.285156 226.546875 137.949219 226.273438 137.773438 Z M 199.15625 149.625 L 198.417969 150.277344 C 198.253906 150.417969 198.03125 150.464844 197.824219 150.402344 L 189.867188 147.925781 C 189.554688 147.828125 189.464844 147.570312 189.441406 147.464844 C 189.417969 147.355469 189.390625 147.085938 189.628906 146.863281 L 190.601562 145.972656 C 190.691406 145.890625 190.804688 145.839844 190.917969 145.820312 C 191.019531 145.804688 191.125 145.8125 191.226562 145.847656 L 198.953125 148.5625 C 199.257812 148.671875 199.339844 148.929688 199.359375 149.035156 C 199.378906 149.140625 199.402344 149.414062 199.15625 149.625 Z M 199.289062 147.59375 L 191.5625 144.875 C 190.992188 144.675781 190.359375 144.804688 189.914062 145.214844 L 188.941406 146.101562 C 188.5 146.507812 188.3125 147.101562 188.445312 147.6875 C 188.574219 148.273438 188.992188 148.730469 189.566406 148.90625 L 197.523438 151.382812 C 197.773438 151.460938 198.035156 151.476562 198.28125 151.4375 C 198.574219 151.386719 198.855469 151.257812 199.089844 151.050781 L 199.832031 150.398438 C 200.277344 150.007812 200.476562 149.425781 200.363281 148.839844 C 200.25 148.253906 199.847656 147.789062 199.289062 147.59375 Z M 195.355469 126.929688 L 194.617188 127.578125 C 194.453125 127.722656 194.230469 127.769531 194.023438 127.707031 L 186.066406 125.230469 C 185.753906 125.132812 185.664062 124.875 185.640625 124.765625 C 185.617188 124.660156 185.585938 124.386719 185.828125 124.167969 L 186.800781 123.277344 C 186.890625 123.195312 187 123.144531 187.117188 123.125 C 187.21875 123.105469 187.324219 123.113281 187.425781 123.152344 L 195.152344 125.867188 C 195.457031 125.972656 195.539062 126.234375 195.558594 126.339844 C 195.578125 126.445312 195.601562 126.714844 195.355469 126.929688 Z M 195.488281 124.894531 L 187.761719 122.179688 C 187.191406 121.980469 186.558594 122.109375 186.109375 122.519531 L 185.140625 123.40625 C 184.699219 123.8125 184.511719 124.402344 184.640625 124.992188 C 184.773438 125.578125 185.191406 126.035156 185.765625 126.210938 L 193.722656 128.6875 C 193.972656 128.765625 194.234375 128.78125 194.480469 128.738281 C 194.773438 128.691406 195.054688 128.558594 195.289062 128.355469 L 196.03125 127.703125 C 196.476562 127.3125 196.675781 126.730469 196.5625 126.144531 C 196.449219 125.558594 196.046875 125.09375 195.488281 124.894531 Z M 159.71875 139.035156 C 154.855469 139.851562 151.121094 139.738281 148.804688 139.492188 L 148.914062 138.472656 C 152.9375 138.902344 161.371094 138.90625 172.660156 134.105469 L 173.058594 135.050781 C 168.011719 137.195312 163.519531 138.398438 159.71875 139.035156 Z M 156.703125 108.195312 L 161.535156 104.148438 C 161.621094 104.078125 161.71875 104.03125 161.824219 104.015625 C 161.914062 104 162.003906 104.003906 162.089844 104.03125 L 168.195312 105.796875 C 168.414062 105.859375 168.570312 106.03125 168.621094 106.253906 C 168.667969 106.480469 168.589844 106.699219 168.417969 106.847656 L 163.65625 110.863281 C 163.511719 110.984375 163.339844 111.058594 163.15625 111.082031 L 157.492188 111.769531 C 157.394531 111.78125 157.304688 111.71875 157.28125 111.625 L 156.546875 108.667969 C 156.503906 108.496094 156.566406 108.308594 156.703125 108.195312 Z M 170.804688 115.777344 C 170.8125 115.78125 170.832031 115.785156 170.835938 115.816406 C 170.84375 115.847656 170.828125 115.855469 170.820312 115.863281 L 168.480469 117.65625 L 166.132812 119.453125 C 165.855469 119.667969 165.523438 119.796875 165.1875 119.832031 C 164.929688 119.863281 164.667969 119.847656 164.417969 119.769531 L 157.824219 117.496094 C 157.714844 117.457031 157.539062 117.304688 157.4375 117.191406 C 157.371094 117.097656 157.320312 116.988281 157.304688 116.867188 L 157.066406 115.207031 C 157.035156 114.996094 157.089844 114.789062 157.21875 114.621094 C 157.277344 114.539062 157.351562 114.476562 157.429688 114.425781 L 157.441406 114.421875 C 157.449219 114.414062 157.460938 114.410156 157.46875 114.40625 C 157.507812 114.386719 157.542969 114.367188 157.582031 114.355469 C 157.597656 114.351562 157.613281 114.347656 157.628906 114.339844 C 157.667969 114.332031 157.703125 114.320312 157.742188 114.316406 L 164.4375 113.488281 C 164.4375 113.488281 164.4375 113.488281 164.441406 113.484375 C 164.503906 113.476562 164.582031 113.484375 164.675781 113.5 L 164.734375 113.511719 C 164.757812 113.519531 164.785156 113.519531 164.808594 113.53125 L 170.785156 115.769531 Z M 171.132812 114.804688 L 165.792969 112.804688 L 169.429688 109.738281 C 169.890625 109.347656 170.097656 108.738281 169.972656 108.144531 C 169.894531 107.78125 169.695312 107.457031 169.417969 107.230469 C 169.628906 106.878906 169.707031 106.457031 169.621094 106.042969 C 169.492188 105.449219 169.054688 104.976562 168.476562 104.808594 L 162.375 103.042969 C 161.851562 102.890625 161.292969 103.011719 160.878906 103.359375 L 156.046875 107.402344 C 155.609375 107.769531 155.417969 108.363281 155.558594 108.914062 L 155.90625 110.324219 C 155.855469 110.554688 155.851562 110.792969 155.910156 111.019531 L 156.597656 113.789062 C 156.527344 113.851562 156.460938 113.917969 156.40625 113.996094 C 156.109375 114.382812 155.984375 114.867188 156.054688 115.351562 L 156.292969 117.011719 C 156.3125 117.136719 156.34375 117.253906 156.386719 117.371094 L 156.644531 119.113281 C 156.742188 119.792969 157.203125 120.351562 157.847656 120.574219 L 164.453125 122.847656 C 164.898438 122.984375 165.359375 123.011719 165.808594 122.9375 C 166.273438 122.859375 166.71875 122.671875 167.105469 122.375 L 171.792969 118.785156 C 172.132812 118.523438 172.28125 118.085938 172.175781 117.664062 C 172.113281 117.285156 171.96875 116.445312 171.96875 116.445312 L 171.851562 115.765625 C 171.847656 115.726562 171.851562 115.6875 171.847656 115.648438 C 171.78125 115.253906 171.507812 114.933594 171.132812 114.804688 Z M 154.300781 119.523438 C 154.304688 119.527344 154.304688 119.527344 154.300781 119.53125 C 154.265625 119.625 154.210938 119.707031 154.132812 119.773438 L 150.953125 122.460938 C 150.390625 122.9375 149.652344 123.128906 148.929688 122.988281 L 143.464844 121.917969 L 142.59375 121.4375 C 142.585938 121.421875 142.578125 121.40625 142.574219 121.390625 C 142.515625 121.15625 142.585938 120.929688 142.769531 120.773438 L 146.652344 117.503906 C 146.761719 117.417969 146.886719 117.355469 147.019531 117.335938 L 153.519531 116.246094 C 153.542969 116.242188 153.578125 116.246094 153.625 116.253906 L 153.664062 116.261719 C 153.765625 116.296875 153.851562 116.382812 153.871094 116.496094 L 154.328125 119.238281 C 154.34375 119.335938 154.335938 119.433594 154.300781 119.523438 Z M 146.195312 107.160156 C 146.203125 107.15625 146.210938 107.152344 146.21875 107.152344 C 146.226562 107.148438 146.234375 107.148438 146.242188 107.152344 L 152.273438 109.15625 C 152.542969 109.246094 152.753906 109.472656 152.820312 109.753906 L 153.425781 112.34375 C 153.445312 112.429688 153.445312 112.519531 153.441406 112.605469 C 153.304688 112.964844 153 113.308594 152.761719 113.347656 L 148.058594 114.136719 C 147.929688 114.15625 147.800781 114.148438 147.679688 114.109375 L 142.039062 112.359375 L 140.667969 111.804688 Z M 154.421875 112.109375 L 153.8125 109.519531 C 153.667969 108.894531 153.199219 108.378906 152.59375 108.179688 L 146.558594 106.175781 C 146.207031 106.058594 145.824219 106.132812 145.539062 106.371094 L 139.96875 111.050781 C 139.667969 111.304688 139.53125 111.703125 139.609375 112.089844 C 139.621094 112.15625 139.648438 112.214844 139.671875 112.277344 C 139.664062 112.339844 139.664062 112.40625 139.671875 112.472656 L 139.894531 113.789062 C 139.902344 113.839844 139.917969 113.890625 139.941406 113.949219 C 139.925781 114.425781 140.222656 114.863281 140.695312 115.011719 L 146.054688 116.671875 C 146.035156 116.6875 146.015625 116.699219 145.996094 116.714844 L 142.113281 119.984375 C 141.835938 120.21875 141.652344 120.53125 141.574219 120.871094 L 141.433594 120.792969 L 142.015625 124.21875 L 142.125 124.199219 C 142.359375 124.585938 142.746094 124.859375 143.203125 124.949219 L 149.089844 126.101562 C 149.503906 126.183594 149.917969 126.183594 150.320312 126.117188 C 150.917969 126.019531 151.488281 125.757812 151.964844 125.351562 L 155.144531 122.664062 C 155.574219 122.300781 155.78125 121.730469 155.691406 121.171875 L 154.878906 116.328125 C 154.832031 116.054688 154.707031 115.816406 154.527344 115.628906 C 154.789062 115.21875 154.890625 114.71875 154.777344 114.246094 L 154.496094 112.539062 L 154.429688 112.175781 C 154.425781 112.152344 154.425781 112.132812 154.421875 112.109375 Z M 242.320312 150.421875 L 242.753906 153.011719 C 243.144531 155.351562 246.609375 156.65625 250.640625 155.980469 C 254.671875 155.308594 257.523438 152.945312 257.132812 150.605469 L 256.691406 147.976562 C 256.398438 146.222656 254.375 145.046875 251.679688 144.855469 C 254.667969 143.65625 257.945312 142.742188 261.316406 142.179688 C 264.265625 141.683594 267.144531 141.476562 269.875 141.519531 C 266.378906 142.390625 264.011719 144.546875 264.371094 146.691406 L 264.8125 149.320312 C 265.203125 151.660156 268.667969 152.960938 272.699219 152.289062 C 276.730469 151.613281 279.582031 149.25 279.191406 146.910156 L 278.75 144.28125 C 278.625 143.53125 278.179688 142.886719 277.503906 142.382812 C 284.289062 143.898438 289.09375 147.3125 289.867188 151.925781 C 291.171875 159.71875 280.488281 168.027344 266.050781 170.445312 C 251.609375 172.863281 238.800781 168.488281 237.496094 160.695312 C 236.929688 157.300781 238.636719 153.6875 242.320312 150.421875 Z M 248.972656 146.019531 C 248.988281 146.019531 249.003906 146.015625 249.019531 146.015625 L 249.027344 146.03125 C 249.046875 146.019531 249.066406 146.015625 249.085938 146.003906 C 252.390625 145.484375 255.398438 146.453125 255.683594 148.144531 C 255.96875 149.859375 253.382812 151.78125 250.03125 152.339844 C 246.679688 152.902344 243.605469 151.929688 243.320312 150.214844 C 243.03125 148.503906 245.621094 146.582031 248.972656 146.019531 Z M 272.089844 148.644531 C 268.738281 149.207031 265.667969 148.234375 265.378906 146.519531 C 265.09375 144.808594 267.679688 142.886719 271.03125 142.324219 C 274.382812 141.765625 277.457031 142.738281 277.742188 144.449219 C 278.027344 146.164062 275.441406 148.085938 272.089844 148.644531 Z M 266.21875 171.457031 C 281.210938 168.945312 292.273438 160.109375 290.875 151.757812 C 289.476562 143.40625 276.140625 138.652344 261.144531 141.164062 C 256.734375 141.902344 252.46875 143.230469 248.789062 145.011719 C 245.59375 145.546875 243.152344 147.144531 242.472656 148.949219 C 237.941406 152.625 235.816406 156.851562 236.488281 160.863281 C 237.886719 169.214844 251.222656 173.96875 266.21875 171.457031 Z M 299.628906 171.917969 C 295.316406 180.683594 280.761719 210.679688 274.6875 228.71875 C 267.886719 248.914062 253.460938 270.300781 233.355469 269.765625 C 227.789062 269.613281 223.34375 267.484375 220.15625 263.433594 C 219.1875 262.207031 218.363281 260.820312 217.660156 259.316406 C 220.148438 261.527344 225.023438 264.453125 232.574219 263.1875 C 235.148438 262.757812 238.039062 261.835938 241.25 260.234375 C 258.839844 251.453125 275.339844 220.898438 280.578125 207.476562 C 282.921875 201.472656 286.898438 192.460938 290.746094 183.746094 C 294.675781 174.847656 298.15625 166.960938 299.5 163.203125 C 299.800781 164.414062 300.070312 165.699219 300.3125 167.078125 C 300.605469 168.742188 300.371094 170.417969 299.628906 171.917969 Z M 215.5 231.890625 L 215.570312 231.554688 C 216.800781 225.628906 218.191406 218.914062 218.121094 212.71875 L 218.121094 212.703125 C 218.175781 207.410156 217.003906 203.929688 216.0625 201.132812 C 215.917969 200.699219 215.777344 200.28125 215.644531 199.871094 C 214.214844 195.414062 217.113281 190.945312 224.496094 186.203125 C 233.265625 180.566406 237.976562 172.066406 238.019531 171.980469 L 238.105469 171.824219 L 235.890625 158.601562 C 235.882812 158.574219 235.882812 158.542969 235.878906 158.515625 C 235.464844 156.0625 233.710938 153.984375 230.792969 152.488281 C 230.8125 152.144531 230.773438 151.808594 230.660156 151.492188 C 229.058594 147.027344 221.628906 144.707031 213.382812 146.085938 C 205.375 147.425781 199.253906 151.761719 198.832031 156.394531 C 198.789062 156.859375 198.875 157.324219 199.066406 157.75 C 196.753906 160.128906 195.75 162.691406 196.164062 165.164062 C 196.167969 165.195312 196.179688 165.226562 196.183594 165.253906 L 196.179688 165.253906 L 198.25 177.625 C 191.285156 174.621094 182.761719 171.480469 175.851562 168.9375 C 174.480469 168.429688 173.175781 167.949219 171.953125 167.496094 C 173.78125 161.714844 184.023438 156.894531 184.128906 156.847656 L 184.484375 156.683594 L 181.585938 139.371094 C 181.175781 136.917969 179.417969 134.839844 176.5 133.34375 C 176.519531 133 176.480469 132.664062 176.367188 132.347656 C 175.582031 130.164062 173.402344 128.496094 170.417969 127.519531 C 178.078125 123.632812 182.25 118.085938 181.375 112.84375 C 181.289062 112.339844 181.160156 111.839844 180.980469 111.359375 L 180.023438 111.710938 C 180.175781 112.132812 180.292969 112.570312 180.367188 113.011719 C 181.191406 117.9375 176.707031 123.457031 168.929688 127.105469 C 166.074219 126.441406 162.660156 126.34375 159.089844 126.941406 C 154.941406 127.636719 151.300781 129.136719 148.695312 131.066406 C 138.96875 130.636719 131.839844 126.722656 130.929688 121.289062 L 129.921875 121.457031 C 130.894531 127.253906 137.742188 131.324219 147.519531 132.027344 C 145.785156 133.609375 144.707031 135.40625 144.539062 137.25 C 144.496094 137.714844 144.582031 138.179688 144.773438 138.605469 C 142.460938 140.988281 141.457031 143.546875 141.871094 146.023438 L 144.90625 164.128906 C 141.507812 166.195312 135.0625 171.894531 127.917969 179.164062 C 119.953125 187.273438 103.269531 201.085938 91.265625 201.441406 C 80.644531 201.757812 76.824219 195.996094 76.289062 195.085938 C 76.378906 187.597656 79.058594 179.269531 84.023438 171.847656 C 92.140625 159.71875 104.984375 146.402344 114.363281 136.679688 C 119.808594 131.039062 124.109375 126.578125 125.699219 124.199219 C 126.175781 123.484375 126.6875 122.664062 127.230469 121.796875 C 131.570312 114.84375 138.828125 103.203125 156.289062 101.597656 C 159.03125 101.34375 161.433594 101.292969 163.558594 101.390625 L 163.554688 101.390625 C 163.5625 101.390625 163.566406 101.390625 163.574219 101.386719 C 173.484375 101.847656 177.15625 105.605469 179.300781 107.808594 C 180.03125 108.554688 180.554688 109.097656 181.144531 109.320312 L 260.277344 139.726562 L 260.40625 139.777344 L 260.542969 139.753906 C 260.71875 139.722656 278.359375 136.890625 288.105469 145.121094 C 291.550781 148.035156 294.316406 150.957031 296.433594 154.9375 C 295.433594 158.125 291.53125 166.960938 287.410156 176.304688 C 283.558594 185.023438 279.574219 194.042969 277.222656 200.066406 C 272.035156 213.367188 255.714844 243.636719 238.394531 252.28125 C 225.085938 258.921875 217.765625 253.550781 215.117188 250.75 C 214.046875 244.378906 214.351562 237.445312 215.5 231.890625 Z M 203.832031 204.769531 L 201.800781 192.644531 C 203.6875 195.21875 207.566406 198.746094 214.265625 197.664062 C 214.265625 198.503906 214.402344 199.339844 214.671875 200.183594 C 214.804688 200.597656 214.949219 201.023438 215.09375 201.460938 C 216.027344 204.222656 217.078125 207.34375 217.101562 212.160156 C 209.816406 211.777344 204.515625 208.84375 203.832031 204.769531 Z M 184.800781 187.027344 L 184.800781 187.023438 L 172.496094 182.378906 C 172.460938 182.363281 172.425781 182.351562 172.390625 182.339844 C 172.195312 181.476562 171.589844 178.578125 171.382812 175.226562 C 179.191406 178.164062 191.730469 183.367188 199.804688 186.902344 L 200.835938 193.0625 C 196.507812 191.441406 191.203125 189.441406 184.800781 187.027344 Z M 170.070312 192.492188 C 159.675781 194.234375 150.460938 191.113281 149.527344 185.539062 L 147.753906 174.96875 C 149.660156 176.398438 154.125 178.5625 162.730469 177.121094 C 164.976562 176.742188 167.507812 176.117188 170.34375 175.175781 C 170.582031 179.230469 171.402344 182.621094 171.460938 182.847656 L 171.523438 183.109375 L 171.777344 183.203125 C 175.746094 184.703125 179.40625 186.085938 182.78125 187.359375 C 179.570312 189.8125 174.996094 191.667969 170.070312 192.492188 Z M 137.15625 194.746094 C 119.0625 211.457031 104.046875 218.453125 91.242188 216.136719 C 85.539062 215.109375 81.21875 211.851562 78.679688 206.6875 C 81.152344 209.046875 85.640625 211.871094 92.835938 211.65625 C 93.691406 211.632812 94.566406 211.539062 95.460938 211.390625 C 107.46875 209.378906 122.671875 196.722656 130.1875 189.074219 C 137.035156 182.105469 143.21875 176.59375 146.625 174.40625 L 148.433594 185.191406 C 145.25 187.550781 141.558594 190.679688 137.15625 194.746094 Z M 146.441406 173.316406 C 143.046875 175.382812 136.601562 181.082031 129.457031 188.351562 C 121.492188 196.457031 104.808594 210.273438 92.804688 210.628906 C 83.242188 210.914062 78.761719 205.605469 77.503906 203.773438 C 76.816406 201.628906 76.421875 199.316406 76.3125 196.894531 C 78.089844 199.039062 82.445312 202.730469 91.296875 202.46875 C 92.152344 202.445312 93.027344 202.351562 93.921875 202.203125 C 105.929688 200.191406 121.132812 187.535156 128.648438 179.886719 C 135.496094 172.917969 141.679688 167.410156 145.085938 165.21875 Z M 199.601562 185.691406 C 191.359375 182.097656 178.929688 176.949219 171.328125 174.109375 C 171.265625 172.238281 171.347656 170.285156 171.707031 168.5 C 172.898438 168.941406 174.167969 169.410156 175.503906 169.902344 C 182.601562 172.515625 191.410156 175.757812 198.453125 178.832031 Z M 223.585938 163.648438 C 215.566406 167.902344 210.863281 165.675781 210.835938 165.664062 C 206.964844 163.523438 202.300781 159.578125 200.476562 157.976562 C 200.035156 157.589844 199.800781 157.035156 199.851562 156.492188 C 200.226562 152.382812 206.117188 148.347656 213.550781 147.101562 C 221.191406 145.820312 228.285156 147.902344 229.699219 151.839844 C 229.828125 152.195312 229.804688 152.613281 229.636719 153.015625 C 228.84375 154.894531 226.679688 159.671875 223.585938 163.648438 Z M 230.847656 159.195312 C 230.316406 158.421875 229.621094 157.632812 228.84375 157.128906 C 229.113281 156.601562 229.359375 156.101562 229.578125 155.640625 C 230.246094 156.378906 230.664062 157.191406 230.8125 158.066406 C 230.875 158.441406 230.882812 158.820312 230.847656 159.195312 Z M 202.597656 161.105469 C 201.835938 162.058594 201.449219 163.144531 201.355469 164.597656 C 201.082031 164.125 200.894531 163.621094 200.808594 163.089844 C 200.640625 162.105469 200.824219 161.089844 201.339844 160.066406 C 201.722656 160.390625 202.144531 160.738281 202.597656 161.105469 Z M 199.804688 158.753906 C 200.015625 158.933594 200.261719 159.148438 200.539062 159.386719 C 199.835938 160.679688 199.585938 161.980469 199.800781 163.257812 C 200.632812 168.230469 208.492188 171.070312 217.320312 169.59375 C 226.148438 168.113281 232.652344 162.867188 231.820312 157.898438 C 231.617188 156.695312 231.015625 155.605469 230.039062 154.648438 C 230.238281 154.207031 230.40625 153.820312 230.539062 153.507812 C 233.03125 154.839844 234.523438 156.621094 234.871094 158.683594 C 235.804688 164.257812 228.109375 170.210938 217.714844 171.949219 C 207.320312 173.691406 198.105469 170.570312 197.171875 164.996094 C 196.820312 162.90625 197.683594 160.703125 199.660156 158.609375 C 199.707031 158.65625 199.753906 158.707031 199.804688 158.753906 Z M 217.882812 172.964844 C 226.65625 171.496094 233.574219 167.042969 235.457031 162.175781 L 237.039062 171.636719 C 236.371094 172.789062 231.859375 180.25 223.945312 185.335938 C 218 189.152344 214.820312 192.871094 214.332031 196.609375 C 214.285156 196.621094 214.234375 196.632812 214.1875 196.640625 C 205.003906 198.175781 201.636719 190.582031 201.332031 189.851562 L 197.757812 168.488281 C 201.117188 172.476562 209.113281 174.433594 217.882812 172.964844 Z M 163.589844 153.820312 C 172.363281 152.351562 179.285156 147.898438 181.160156 143.03125 L 183.347656 156.085938 C 181.390625 157.042969 172.238281 161.808594 170.835938 167.691406 C 170.351562 169.726562 170.230469 171.972656 170.296875 174.105469 C 153.960938 179.617188 148.1875 174.117188 147.484375 173.347656 L 143.464844 149.34375 C 146.824219 153.335938 154.820312 155.289062 163.589844 153.820312 Z M 176.5625 139.957031 C 176.09375 139.269531 175.429688 138.449219 174.617188 137.855469 C 174.859375 137.375 175.082031 136.921875 175.285156 136.5 C 175.953125 137.234375 176.371094 138.046875 176.519531 138.921875 C 176.574219 139.265625 176.589844 139.613281 176.5625 139.957031 Z M 148.304688 141.960938 C 147.542969 142.914062 147.15625 144 147.0625 145.453125 C 146.792969 144.980469 146.605469 144.480469 146.515625 143.949219 C 146.351562 142.960938 146.53125 141.945312 147.046875 140.921875 C 147.433594 141.246094 147.855469 141.59375 148.304688 141.960938 Z M 159.257812 127.957031 C 166.898438 126.675781 173.992188 128.757812 175.40625 132.695312 C 175.53125 133.050781 175.511719 133.46875 175.34375 133.871094 C 174.550781 135.75 172.386719 140.53125 169.292969 144.503906 C 161.273438 148.757812 156.570312 146.535156 156.542969 146.519531 C 152.675781 144.382812 148.007812 140.433594 146.183594 138.835938 C 145.742188 138.449219 145.507812 137.890625 145.554688 137.347656 C 145.933594 133.238281 151.824219 129.203125 159.257812 127.957031 Z M 145.515625 139.609375 C 145.722656 139.792969 145.96875 140.007812 146.246094 140.242188 C 145.554688 141.527344 145.296875 142.855469 145.507812 144.117188 C 146.339844 149.085938 154.199219 151.925781 163.027344 150.449219 C 171.855469 148.96875 178.359375 143.722656 177.527344 138.753906 C 177.324219 137.550781 176.722656 136.460938 175.746094 135.503906 C 175.945312 135.0625 176.113281 134.675781 176.246094 134.363281 C 178.734375 135.695312 180.230469 137.476562 180.578125 139.539062 C 181.507812 145.113281 173.8125 151.066406 163.421875 152.804688 C 153.027344 154.546875 143.8125 151.425781 142.878906 145.855469 C 142.527344 143.761719 143.386719 141.5625 145.367188 139.464844 C 145.414062 139.511719 145.460938 139.5625 145.515625 139.609375 Z M 171.480469 97.460938 C 172.617188 97.359375 183.339844 96.632812 187.617188 104.511719 L 185.652344 109.953125 L 181.507812 108.363281 C 181.128906 108.214844 180.644531 107.71875 180.03125 107.089844 C 178.085938 105.09375 174.527344 101.449219 165.714844 100.535156 C 167.320312 99.75 169.523438 98.550781 171.480469 97.460938 Z M 188.316406 110.980469 L 186.605469 110.320312 L 187.890625 106.761719 Z M 277.613281 135.132812 C 278.808594 135.003906 289.027344 134.1875 293.980469 142.554688 L 292.476562 147.792969 C 291.335938 146.601562 290.101562 145.46875 288.761719 144.335938 C 284.148438 140.4375 277.992188 138.910156 272.585938 138.40625 C 273.765625 137.710938 275.445312 136.621094 277.613281 135.132812 Z M 296.136719 152.394531 C 295.273438 151.054688 294.328125 149.828125 293.289062 148.667969 L 294.460938 144.589844 Z M 215.445312 252.484375 C 218 254.714844 222.761719 257.421875 230.070312 256.195312 C 232.667969 255.761719 235.589844 254.828125 238.847656 253.203125 C 256.4375 244.421875 272.941406 213.863281 278.175781 200.441406 C 280.519531 194.441406 284.496094 185.433594 288.34375 176.722656 C 292.117188 168.171875 295.703125 160.050781 297.078125 156.222656 C 297.804688 157.765625 298.449219 159.464844 299.007812 161.375 C 298.414062 163.84375 294.234375 173.3125 289.8125 183.328125 C 285.960938 192.054688 281.976562 201.074219 279.628906 207.097656 C 274.4375 220.398438 258.117188 250.667969 240.796875 259.3125 C 224.730469 267.332031 217.457031 257.917969 216.605469 256.695312 C 216.136719 255.347656 215.75 253.9375 215.445312 252.484375 Z M 297.828125 155.40625 L 295.058594 142.507812 L 295.082031 142.421875 L 294.976562 142.230469 C 289.433594 132.558594 277.476562 134.109375 277.359375 134.125 L 277.238281 134.144531 L 277.140625 134.210938 C 274.449219 136.0625 271.386719 138.027344 270.699219 138.269531 C 265.523438 137.996094 261.371094 138.582031 260.511719 138.71875 L 189.386719 111.390625 L 188.695312 104.539062 L 188.734375 104.4375 L 188.625 104.234375 C 183.882812 95.105469 171.390625 96.433594 171.265625 96.449219 L 171.164062 96.460938 L 171.078125 96.507812 C 167.800781 98.335938 164.097656 100.277344 163.5625 100.363281 C 163.5625 100.367188 163.5625 100.367188 163.5625 100.367188 C 163.5625 100.367188 163.582031 100.363281 163.613281 100.367188 L 163.609375 100.375 C 161.433594 100.269531 158.980469 100.316406 156.191406 100.574219 C 138.234375 102.234375 130.804688 114.136719 126.363281 121.25 C 125.828125 122.109375 125.320312 122.925781 124.851562 123.625 C 123.308594 125.929688 119.039062 130.359375 113.628906 135.964844 C 104.222656 145.714844 91.34375 159.066406 83.175781 171.273438 C 76.132812 181.800781 73.59375 194.148438 76.371094 203.546875 L 76.210938 203.628906 C 76.21875 203.644531 76.335938 203.867188 76.578125 204.226562 C 76.777344 204.828125 76.996094 205.417969 77.234375 205.988281 C 79.789062 212.035156 84.699219 216 91.0625 217.148438 C 104.203125 219.527344 119.503906 212.445312 137.847656 195.503906 C 142.046875 191.625 145.585938 188.617188 148.648438 186.308594 C 150.195312 192.066406 159.652344 195.277344 170.238281 193.503906 C 175.582031 192.609375 180.539062 190.53125 183.898438 187.78125 C 190.820312 190.394531 196.488281 192.527344 201.03125 194.234375 L 202.824219 204.941406 C 203.601562 209.578125 209.183594 212.789062 217.097656 213.1875 C 217.09375 219.144531 215.757812 225.617188 214.570312 231.34375 L 214.5 231.679688 C 212.902344 239.390625 212.128906 254.894531 219.355469 264.070312 C 222.742188 268.371094 227.445312 270.632812 233.328125 270.792969 C 235.191406 270.839844 237.007812 270.710938 238.773438 270.414062 C 256.585938 267.429688 269.363281 247.738281 275.65625 229.050781 C 281.707031 211.070312 296.238281 181.125 300.546875 172.375 C 301.382812 170.675781 301.648438 168.785156 301.320312 166.898438 C 300.492188 162.1875 299.332031 158.492188 297.828125 155.40625 "/>
</g>
</g>
</g>
</g>
</g>
</svg>
