<?xml version="1.0" encoding="UTF-8"?>
<svg xmlns="http://www.w3.org/2000/svg" xmlns:xlink="http://www.w3.org/1999/xlink" width="810pt" height="809.999993pt" viewBox="0 0 810 809.999993" version="1.2">
<defs>
<clipPath id="clip1">
  <path d="M 417.046875 126 L 741.046875 126 L 741.046875 256 L 417.046875 256 Z M 417.046875 126 "/>
</clipPath>
<clipPath id="clip2">
  <path d="M 54.339844 442.9375 L 339.789062 442.9375 L 339.789062 728.382812 L 54.339844 728.382812 Z M 54.339844 442.9375 "/>
</clipPath>
<clipPath id="clip3">
  <path d="M 474.976562 426.53125 L 741.226562 426.53125 L 741.226562 692.78125 L 474.976562 692.78125 Z M 474.976562 426.53125 "/>
</clipPath>
<clipPath id="clip4">
  <path d="M 602 426.53125 L 741.226562 426.53125 L 741.226562 692.78125 L 602 692.78125 Z M 602 426.53125 "/>
</clipPath>
<clipPath id="clip5">
  <path d="M 474.976562 426.53125 L 741.226562 426.53125 L 741.226562 692.78125 L 474.976562 692.78125 Z M 474.976562 426.53125 "/>
</clipPath>
<clipPath id="clip6">
  <path d="M 602 426.53125 L 741.226562 426.53125 L 741.226562 692.78125 L 602 692.78125 Z M 602 426.53125 "/>
</clipPath>
<clipPath id="clip7">
  <path d="M 495 426.53125 L 728 426.53125 L 728 587 L 495 587 Z M 495 426.53125 "/>
</clipPath>
<clipPath id="clip8">
  <path d="M 602 566 L 663 566 L 663 692.78125 L 602 692.78125 Z M 602 566 "/>
</clipPath>
</defs>
<g id="surface1">
<path style=" stroke:none;fill-rule:nonzero;fill:rgb(77.249146%,21.569824%,20.779419%);fill-opacity:1;" d="M 561.050781 163.652344 L 579.046875 163.652344 L 579.046875 200.367188 L 561.050781 200.367188 Z M 561.050781 163.652344 "/>
<g clip-path="url(#clip1)" clip-rule="nonzero">
<path style=" stroke:none;fill-rule:nonzero;fill:rgb(77.249146%,21.569824%,20.779419%);fill-opacity:1;" d="M 741.046875 126.9375 L 417.046875 126.9375 L 417.046875 237.097656 L 507.050781 237.097656 L 507.050781 255.453125 L 579.046875 255.453125 L 579.046875 237.097656 L 741.046875 237.097656 Z M 507.050781 218.738281 L 489.042969 218.738281 L 489.042969 163.652344 L 471.046875 163.652344 L 471.046875 218.726562 L 435.042969 218.726562 L 435.042969 145.292969 L 507.039062 145.292969 L 507.039062 218.738281 Z M 597.042969 218.738281 L 561.039062 218.738281 L 561.039062 237.097656 L 525.046875 237.097656 L 525.046875 145.292969 L 597.042969 145.292969 Z M 723.050781 218.738281 L 705.054688 218.738281 L 705.054688 163.652344 L 687.046875 163.652344 L 687.046875 218.726562 L 669.050781 218.726562 L 669.050781 163.652344 L 651.054688 163.652344 L 651.054688 218.726562 L 615.050781 218.726562 L 615.050781 145.292969 L 723.050781 145.292969 Z M 723.050781 218.738281 "/>
</g>
<g clip-path="url(#clip2)" clip-rule="nonzero">
<path style=" stroke:none;fill-rule:nonzero;fill:rgb(0%,76.858521%,79.998779%);fill-opacity:1;" d="M 339.789062 585.660156 C 339.789062 587.996094 339.730469 590.328125 339.617188 592.664062 C 339.5 594.996094 339.328125 597.324219 339.101562 599.648438 C 338.871094 601.972656 338.585938 604.289062 338.242188 606.601562 C 337.898438 608.910156 337.5 611.210938 337.046875 613.503906 C 336.589844 615.792969 336.078125 618.074219 335.511719 620.339844 C 334.941406 622.605469 334.320312 624.855469 333.640625 627.089844 C 332.964844 629.324219 332.230469 631.542969 331.445312 633.742188 C 330.65625 635.941406 329.816406 638.121094 328.921875 640.277344 C 328.03125 642.433594 327.082031 644.570312 326.085938 646.679688 C 325.085938 648.792969 324.035156 650.878906 322.933594 652.9375 C 321.832031 655 320.683594 657.03125 319.480469 659.035156 C 318.28125 661.035156 317.03125 663.011719 315.734375 664.953125 C 314.4375 666.894531 313.09375 668.804688 311.699219 670.679688 C 310.308594 672.554688 308.871094 674.394531 307.390625 676.203125 C 305.910156 678.007812 304.382812 679.777344 302.816406 681.507812 C 301.246094 683.238281 299.636719 684.929688 297.984375 686.578125 C 296.332031 688.230469 294.640625 689.839844 292.910156 691.410156 C 291.179688 692.980469 289.414062 694.503906 287.605469 695.984375 C 285.800781 697.46875 283.960938 698.902344 282.085938 700.296875 C 280.207031 701.6875 278.300781 703.03125 276.355469 704.328125 C 274.414062 705.625 272.441406 706.875 270.4375 708.078125 C 268.433594 709.277344 266.402344 710.429688 264.34375 711.53125 C 262.285156 712.632812 260.199219 713.679688 258.085938 714.679688 C 255.976562 715.679688 253.839844 716.625 251.683594 717.519531 C 249.523438 718.410156 247.34375 719.253906 245.144531 720.039062 C 242.945312 720.828125 240.730469 721.558594 238.496094 722.238281 C 236.257812 722.914062 234.007812 723.539062 231.742188 724.105469 C 229.476562 724.671875 227.199219 725.183594 224.910156 725.640625 C 222.617188 726.09375 220.316406 726.496094 218.007812 726.835938 C 215.695312 727.179688 213.378906 727.464844 211.054688 727.695312 C 208.730469 727.925781 206.402344 728.097656 204.066406 728.210938 C 201.734375 728.324219 199.398438 728.382812 197.066406 728.382812 C 194.730469 728.382812 192.394531 728.324219 190.0625 728.210938 C 187.730469 728.097656 185.398438 727.925781 183.074219 727.695312 C 180.75 727.464844 178.433594 727.179688 176.121094 726.835938 C 173.8125 726.496094 171.511719 726.09375 169.222656 725.640625 C 166.929688 725.183594 164.652344 724.671875 162.386719 724.105469 C 160.121094 723.539062 157.871094 722.914062 155.632812 722.238281 C 153.398438 721.558594 151.183594 720.828125 148.984375 720.039062 C 146.785156 719.253906 144.605469 718.410156 142.445312 717.519531 C 140.289062 716.625 138.152344 715.679688 136.042969 714.679688 C 133.929688 713.679688 131.84375 712.632812 129.785156 711.53125 C 127.726562 710.429688 125.695312 709.277344 123.691406 708.078125 C 121.6875 706.875 119.714844 705.625 117.773438 704.328125 C 115.828125 703.03125 113.921875 701.6875 112.042969 700.296875 C 110.167969 698.902344 108.328125 697.46875 106.523438 695.984375 C 104.714844 694.503906 102.949219 692.980469 101.21875 691.410156 C 99.488281 689.839844 97.796875 688.230469 96.144531 686.578125 C 94.492188 684.929688 92.882812 683.238281 91.3125 681.507812 C 89.746094 679.777344 88.21875 678.007812 86.738281 676.203125 C 85.257812 674.394531 83.820312 672.554688 82.429688 670.679688 C 81.039062 668.804688 79.691406 666.894531 78.394531 664.953125 C 77.097656 663.011719 75.847656 661.035156 74.648438 659.035156 C 73.445312 657.03125 72.296875 655 71.195312 652.9375 C 70.09375 650.878906 69.042969 648.792969 68.042969 646.679688 C 67.046875 644.570312 66.101562 642.433594 65.207031 640.277344 C 64.3125 638.121094 63.472656 635.941406 62.683594 633.742188 C 61.898438 631.542969 61.164062 629.324219 60.488281 627.089844 C 59.808594 624.855469 59.1875 622.605469 58.617188 620.339844 C 58.050781 618.074219 57.539062 615.792969 57.085938 613.503906 C 56.628906 611.210938 56.230469 608.910156 55.886719 606.601562 C 55.542969 604.289062 55.257812 601.972656 55.027344 599.648438 C 54.800781 597.324219 54.628906 594.996094 54.515625 592.664062 C 54.398438 590.328125 54.339844 587.996094 54.339844 585.660156 C 54.339844 583.324219 54.398438 580.988281 54.515625 578.65625 C 54.628906 576.324219 54.800781 573.996094 55.027344 571.671875 C 55.257812 569.347656 55.542969 567.027344 55.886719 564.71875 C 56.230469 562.40625 56.628906 560.105469 57.085938 557.816406 C 57.539062 555.523438 58.050781 553.246094 58.617188 550.980469 C 59.1875 548.714844 59.808594 546.464844 60.488281 544.230469 C 61.164062 541.992188 61.898438 539.777344 62.683594 537.578125 C 63.472656 535.378906 64.3125 533.199219 65.207031 531.042969 C 66.101562 528.882812 67.046875 526.75 68.042969 524.636719 C 69.042969 522.527344 70.09375 520.441406 71.195312 518.378906 C 72.296875 516.320312 73.445312 514.289062 74.648438 512.285156 C 75.847656 510.28125 77.097656 508.308594 78.394531 506.367188 C 79.691406 504.425781 81.039062 502.515625 82.429688 500.640625 C 83.820312 498.761719 85.257812 496.921875 86.738281 495.117188 C 88.21875 493.3125 89.746094 491.542969 91.3125 489.8125 C 92.882812 488.082031 94.492188 486.390625 96.144531 484.738281 C 97.796875 483.085938 99.488281 481.476562 101.21875 479.910156 C 102.949219 478.339844 104.714844 476.816406 106.523438 475.332031 C 108.328125 473.851562 110.167969 472.414062 112.042969 471.023438 C 113.921875 469.632812 115.828125 468.289062 117.773438 466.988281 C 119.714844 465.691406 121.6875 464.441406 123.691406 463.242188 C 125.695312 462.042969 127.726562 460.890625 129.785156 459.789062 C 131.84375 458.6875 133.929688 457.636719 136.042969 456.640625 C 138.152344 455.640625 140.289062 454.695312 142.445312 453.800781 C 144.605469 452.90625 146.785156 452.066406 148.984375 451.28125 C 151.183594 450.492188 153.398438 449.761719 155.632812 449.082031 C 157.871094 448.402344 160.121094 447.78125 162.386719 447.214844 C 164.652344 446.644531 166.929688 446.132812 169.222656 445.679688 C 171.511719 445.222656 173.8125 444.824219 176.121094 444.480469 C 178.433594 444.140625 180.75 443.851562 183.074219 443.625 C 185.398438 443.394531 187.730469 443.222656 190.0625 443.109375 C 192.394531 442.992188 194.730469 442.9375 197.066406 442.9375 C 199.398438 442.9375 201.734375 442.992188 204.066406 443.109375 C 206.402344 443.222656 208.730469 443.394531 211.054688 443.625 C 213.378906 443.851562 215.695312 444.140625 218.007812 444.480469 C 220.316406 444.824219 222.617188 445.222656 224.910156 445.679688 C 227.199219 446.132812 229.476562 446.644531 231.742188 447.214844 C 234.007812 447.78125 236.257812 448.402344 238.496094 449.082031 C 240.730469 449.761719 242.945312 450.492188 245.144531 451.28125 C 247.34375 452.066406 249.523438 452.90625 251.683594 453.800781 C 253.839844 454.695312 255.976562 455.640625 258.085938 456.640625 C 260.199219 457.636719 262.285156 458.6875 264.34375 459.789062 C 266.402344 460.890625 268.433594 462.042969 270.4375 463.242188 C 272.441406 464.441406 274.414062 465.691406 276.355469 466.988281 C 278.300781 468.289062 280.207031 469.632812 282.085938 471.023438 C 283.960938 472.414062 285.800781 473.851562 287.605469 475.332031 C 289.414062 476.816406 291.179688 478.339844 292.910156 479.910156 C 294.640625 481.476562 296.332031 483.085938 297.984375 484.738281 C 299.636719 486.390625 301.246094 488.082031 302.816406 489.8125 C 304.382812 491.542969 305.910156 493.3125 307.390625 495.117188 C 308.871094 496.921875 310.308594 498.761719 311.699219 500.640625 C 313.09375 502.515625 314.4375 504.425781 315.734375 506.367188 C 317.03125 508.308594 318.28125 510.28125 319.480469 512.285156 C 320.683594 514.289062 321.832031 516.320312 322.933594 518.378906 C 324.035156 520.441406 325.085938 522.527344 326.085938 524.636719 C 327.082031 526.75 328.03125 528.882812 328.921875 531.042969 C 329.816406 533.199219 330.65625 535.378906 331.445312 537.578125 C 332.230469 539.777344 332.964844 541.992188 333.640625 544.230469 C 334.320312 546.464844 334.941406 548.714844 335.511719 550.980469 C 336.078125 553.246094 336.589844 555.523438 337.046875 557.816406 C 337.5 560.105469 337.898438 562.40625 338.242188 564.71875 C 338.585938 567.027344 338.871094 569.347656 339.101562 571.671875 C 339.328125 573.996094 339.5 576.324219 339.617188 578.65625 C 339.730469 580.988281 339.789062 583.324219 339.789062 585.660156 Z M 339.789062 585.660156 "/>
</g>
<path style=" stroke:none;fill-rule:nonzero;fill:rgb(100%,100%,100%);fill-opacity:1;" d="M 151.996094 601.683594 C 148.488281 606.359375 143.980469 611.367188 137.972656 615.207031 C 132.128906 618.878906 125.453125 621.882812 117.605469 621.882812 C 110.429688 621.882812 104.253906 618.042969 100.914062 614.871094 C 95.90625 610.199219 93.234375 603.1875 92.402344 596.84375 C 89.898438 576.8125 102.25 550.4375 121.28125 538.917969 C 125.621094 536.25 130.460938 534.914062 134.96875 534.914062 C 144.148438 534.914062 150.992188 541.421875 151.828125 549.269531 C 152.660156 556.28125 149.824219 562.289062 142.144531 566.296875 C 138.140625 568.300781 136.136719 568.132812 135.636719 567.296875 C 135.300781 566.628906 135.46875 565.628906 136.304688 564.960938 C 143.648438 558.785156 143.816406 553.777344 142.980469 546.765625 C 142.480469 542.257812 139.476562 539.253906 136.136719 539.253906 C 121.78125 539.253906 101.082031 571.46875 103.917969 594.839844 C 105.085938 604.023438 110.597656 614.539062 122.28125 614.539062 C 126.121094 614.539062 130.125 613.535156 133.800781 611.699219 C 141.8125 607.695312 145.484375 604.6875 150.324219 598.011719 C 150.992188 597.175781 151.492188 596.175781 152.328125 595.175781 C 152.828125 594.339844 153.496094 594.171875 154.164062 594.171875 C 154.832031 594.171875 155.5 594.839844 155.667969 595.675781 C 155.832031 596.34375 155.5 597.511719 154.664062 598.511719 C 153.496094 599.679688 152.828125 600.683594 151.996094 601.683594 Z M 151.996094 601.683594 "/>
<path style=" stroke:none;fill-rule:nonzero;fill:rgb(100%,100%,100%);fill-opacity:1;" d="M 173.863281 613.371094 C 170.1875 613.371094 168.1875 611.367188 167.519531 608.527344 C 165.179688 611.699219 162.011719 613.371094 158.671875 613.371094 C 153.164062 613.371094 147.820312 608.695312 147.152344 602.351562 C 145.816406 591.335938 155.164062 577.3125 169.355469 577.3125 C 175.363281 577.3125 180.371094 579.648438 180.871094 584.492188 C 181.539062 590.5 176.53125 591.667969 174.53125 591.667969 C 172.859375 591.667969 170.1875 591.167969 170.023438 589.664062 C 169.855469 587.996094 173.695312 589 173.195312 585.160156 C 172.859375 582.820312 170.355469 581.988281 168.019531 581.988281 C 159.339844 581.988281 154.664062 594.007812 155.5 601.519531 C 155.832031 604.855469 157.667969 608.195312 160.839844 608.195312 C 163.34375 608.195312 167.019531 604.523438 168.351562 599.347656 C 169.1875 595.675781 172.691406 593.339844 175.195312 593.339844 C 176.53125 593.339844 177.367188 594.007812 177.535156 595.339844 C 177.535156 595.84375 177.535156 596.34375 177.367188 597.175781 C 177.035156 598.679688 175.863281 604.023438 175.863281 605.023438 C 175.863281 606.023438 176.53125 607.191406 178.035156 607.191406 C 179.871094 607.191406 188.382812 602.183594 193.226562 595.507812 C 193.558594 594.839844 194.394531 594.507812 195.226562 594.507812 C 195.894531 594.507812 196.5625 594.839844 196.730469 595.675781 C 196.898438 596.511719 196.5625 597.679688 195.394531 599.015625 C 189.886719 606.691406 178.035156 613.371094 173.863281 613.371094 Z M 173.863281 613.371094 "/>
<path style=" stroke:none;fill-rule:nonzero;fill:rgb(100%,100%,100%);fill-opacity:1;" d="M 293.214844 609.363281 C 293.714844 612.867188 295.21875 615.207031 296.71875 616.375 C 297.222656 616.875 297.554688 617.375 297.554688 617.875 C 297.722656 618.878906 296.886719 619.710938 295.71875 619.710938 C 295.386719 619.710938 294.882812 619.710938 294.550781 619.546875 C 288.375 617.042969 285.871094 612.867188 285.035156 608.863281 C 282.699219 611.867188 279.527344 613.535156 276.1875 613.535156 C 270.679688 613.535156 265.335938 608.695312 264.503906 602.519531 C 263.167969 591.667969 273.015625 577.480469 286.871094 577.480469 C 292.714844 577.480469 297.890625 579.816406 298.390625 584.492188 C 299.222656 590.667969 293.882812 591.835938 292.046875 591.835938 C 290.210938 591.835938 287.539062 591.335938 287.371094 589.832031 C 287.207031 588.332031 291.042969 589.164062 290.710938 585.324219 C 290.375 582.988281 287.871094 581.988281 285.535156 581.988281 C 277.523438 581.988281 272.015625 592.671875 273.015625 601.351562 C 273.515625 604.855469 275.019531 608.195312 278.191406 608.195312 C 280.695312 608.195312 284.535156 604.523438 285.871094 599.347656 C 286.703125 595.84375 290.210938 593.339844 292.714844 593.339844 C 293.882812 593.339844 294.882812 594.007812 295.050781 595.339844 C 295.21875 596.007812 294.882812 597.679688 293.546875 603.355469 C 293.046875 605.691406 293.046875 607.695312 293.214844 609.363281 Z M 293.214844 609.363281 "/>
<path style=" stroke:none;fill-rule:nonzero;fill:rgb(100%,100%,100%);fill-opacity:1;" d="M 218.429688 607.191406 C 220.433594 607.191406 226.609375 604.855469 231.617188 598.011719 C 232.121094 597.34375 232.785156 597.011719 233.621094 597.011719 C 234.457031 597.011719 235.125 597.34375 235.289062 598.347656 C 235.457031 599.015625 234.957031 600.183594 233.957031 601.519531 C 228.28125 609.363281 218.765625 613.371094 214.59375 613.371094 C 210.25 613.371094 207.914062 610.699219 207.414062 606.691406 C 207.246094 605.355469 207.246094 603.855469 207.582031 602.183594 C 209.082031 593.339844 212.253906 587.828125 212.089844 586.160156 C 212.089844 585.660156 211.753906 585.492188 211.421875 585.492188 C 208.582031 585.492188 198.902344 595.507812 197.398438 602.019531 L 196.230469 607.359375 C 195.5625 611.03125 191.890625 613.535156 189.21875 613.535156 C 188.050781 613.535156 187.050781 612.867188 186.882812 611.535156 C 186.882812 611.03125 186.882812 610.53125 187.050781 609.695312 C 187.050781 609.695312 191.890625 584.992188 192.058594 583.824219 C 192.558594 580.984375 193.558594 577.980469 199.570312 577.980469 C 200.738281 577.980469 201.738281 578.648438 201.90625 579.984375 C 201.90625 580.484375 201.90625 580.984375 201.738281 581.820312 L 200.070312 589.164062 C 205.242188 582.320312 213.257812 577.3125 218.097656 577.3125 C 220.101562 577.3125 221.769531 578.316406 221.9375 580.484375 C 222.105469 581.652344 221.769531 583.65625 220.933594 585.992188 C 219.265625 590.667969 217.261719 597.679688 216.09375 603.855469 C 215.59375 605.191406 216.09375 607.191406 218.429688 607.191406 Z M 218.429688 607.191406 "/>
<path style=" stroke:none;fill-rule:nonzero;fill:rgb(100%,100%,100%);fill-opacity:1;" d="M 258.660156 596.511719 C 257.992188 596.511719 257.324219 596.511719 256.65625 596.34375 C 251.316406 604.1875 245.640625 609.53125 241.300781 612.035156 C 239.464844 613.035156 237.792969 613.535156 236.625 613.535156 C 235.625 613.535156 234.625 613.371094 234.121094 612.535156 C 232.121094 609.363281 231.285156 602.6875 231.285156 595.84375 C 231.285156 590.835938 231.617188 586.660156 232.621094 583.65625 C 233.621094 580.484375 237.628906 577.480469 240.132812 577.480469 C 241.46875 577.480469 242.46875 578.148438 242.46875 579.648438 C 242.46875 580.152344 242.300781 580.652344 242.136719 581.320312 C 240.296875 586.660156 239.296875 591.503906 239.296875 596.511719 C 239.296875 599.347656 239.964844 603.6875 240.464844 606.023438 C 240.632812 606.527344 240.632812 607.027344 241.132812 607.027344 C 241.96875 607.027344 247.644531 601.519531 251.648438 594.839844 C 247.976562 592.503906 245.972656 588.332031 245.972656 583.15625 C 245.972656 574.476562 251.148438 570.136719 256.15625 570.136719 C 260.164062 570.136719 263.667969 572.972656 263.667969 578.816406 C 263.667969 582.488281 262.167969 586.492188 260.164062 590.5 C 260.164062 590.5 260.996094 590.667969 261.332031 590.667969 C 264.503906 590.667969 266.839844 589.164062 268.175781 587.664062 C 269.175781 586.660156 270.011719 585.828125 270.847656 585.828125 C 271.515625 585.828125 271.679688 586.328125 271.679688 586.828125 C 271.679688 587.160156 271.515625 587.828125 271.179688 588.332031 C 268.507812 593.171875 263 596.511719 258.660156 596.511719 Z M 251.316406 578.480469 C 251.316406 581.820312 252.984375 585.324219 255.15625 587.664062 C 255.988281 585.324219 256.492188 583.15625 256.492188 580.820312 C 256.492188 576.480469 254.820312 574.640625 253.484375 574.640625 C 251.816406 574.476562 251.316406 576.644531 251.316406 578.480469 Z M 251.316406 578.480469 "/>
<g clip-path="url(#clip3)" clip-rule="nonzero">
<path style=" stroke:none;fill-rule:nonzero;fill:rgb(29.798889%,68.629456%,31.369019%);fill-opacity:1;" d="M 741.414062 559.75 C 741.414062 633.3125 681.761719 692.96875 608.195312 692.96875 C 534.632812 692.96875 474.976562 633.3125 474.976562 559.75 C 474.976562 486.1875 534.632812 426.53125 608.195312 426.53125 C 681.761719 426.53125 741.414062 486.1875 741.414062 559.75 Z M 741.414062 559.75 "/>
</g>
<g clip-path="url(#clip4)" clip-rule="nonzero">
<path style=" stroke:none;fill-rule:nonzero;fill:rgb(100%,75.689697%,2.749634%);fill-opacity:1;" d="M 608.195312 426.53125 L 608.195312 559.75 L 661.484375 586.394531 L 602.582031 692.96875 C 604.691406 692.96875 606.085938 692.96875 608.195312 692.96875 C 681.820312 692.96875 741.414062 633.375 741.414062 559.75 C 741.414062 486.128906 681.820312 426.53125 608.195312 426.53125 Z M 608.195312 426.53125 "/>
</g>
<g clip-path="url(#clip5)" clip-rule="nonzero">
<path style=" stroke:none;fill-rule:nonzero;fill:rgb(29.798889%,68.629456%,31.369019%);fill-opacity:1;" d="M 741.414062 559.75 C 741.414062 633.3125 681.761719 692.96875 608.195312 692.96875 C 534.632812 692.96875 474.976562 633.3125 474.976562 559.75 C 474.976562 486.1875 534.632812 426.53125 608.195312 426.53125 C 681.761719 426.53125 741.414062 486.1875 741.414062 559.75 Z M 741.414062 559.75 "/>
</g>
<g clip-path="url(#clip6)" clip-rule="nonzero">
<path style=" stroke:none;fill-rule:nonzero;fill:rgb(100%,75.689697%,2.749634%);fill-opacity:1;" d="M 608.195312 426.53125 L 608.195312 559.75 L 661.484375 586.394531 L 602.582031 692.96875 C 604.691406 692.96875 606.085938 692.96875 608.195312 692.96875 C 681.820312 692.96875 741.414062 633.375 741.414062 559.75 C 741.414062 486.128906 681.820312 426.53125 608.195312 426.53125 Z M 608.195312 426.53125 "/>
</g>
<g clip-path="url(#clip7)" clip-rule="nonzero">
<path style=" stroke:none;fill-rule:nonzero;fill:rgb(95.689392%,26.269531%,21.179199%);fill-opacity:1;" d="M 727.027344 499.800781 L 608.195312 499.800781 L 608.195312 586.394531 L 588.214844 579.734375 L 496.027344 488.210938 L 495.894531 488.210938 C 519.472656 451.109375 560.96875 426.53125 608.195312 426.53125 C 660.152344 426.53125 705.113281 456.371094 727.027344 499.800781 Z M 727.027344 499.800781 "/>
</g>
<path style=" stroke:none;fill-rule:nonzero;fill:rgb(86.669922%,17.248535%,0%);fill-opacity:1;" d="M 496.011719 488.238281 L 554.914062 587.234375 L 588.214844 579.734375 Z M 496.011719 488.238281 "/>
<g clip-path="url(#clip8)" clip-rule="nonzero">
<path style=" stroke:none;fill-rule:nonzero;fill:rgb(33.329773%,54.508972%,18.429565%);fill-opacity:1;" d="M 602.582031 692.96875 L 662.089844 586 L 634.839844 566.410156 Z M 602.582031 692.96875 "/>
</g>
<path style=" stroke:none;fill-rule:nonzero;fill:rgb(97.648621%,65.879822%,14.509583%);fill-opacity:1;" d="M 727.195312 499.800781 L 608.195312 499.800781 L 597.679688 530.308594 Z M 727.195312 499.800781 "/>
<path style=" stroke:none;fill-rule:nonzero;fill:rgb(100%,100%,100%);fill-opacity:1;" d="M 668.144531 559.75 C 668.144531 592.847656 641.292969 619.699219 608.195312 619.699219 C 575.097656 619.699219 548.25 592.847656 548.25 559.75 C 548.25 526.652344 575.097656 499.800781 608.195312 499.800781 C 641.292969 499.800781 668.144531 526.652344 668.144531 559.75 Z M 668.144531 559.75 "/>
<path style=" stroke:none;fill-rule:nonzero;fill:rgb(12.939453%,58.81958%,95.289612%);fill-opacity:1;" d="M 654.824219 559.75 C 654.824219 585.507812 633.953125 606.378906 608.195312 606.378906 C 582.4375 606.378906 561.570312 585.507812 561.570312 559.75 C 561.570312 533.992188 582.4375 513.125 608.195312 513.125 C 633.953125 513.125 654.824219 533.992188 654.824219 559.75 Z M 654.824219 559.75 "/>
<path style=" stroke:none;fill-rule:nonzero;fill:rgb(87.059021%,29.798889%,21.179199%);fill-opacity:1;" d="M 347.664062 178.527344 L 217.964844 48.839844 C 210.5 41.367188 198.386719 41.367188 190.914062 48.835938 L 163.972656 75.769531 L 198.144531 109.9375 C 206.082031 107.253906 215.191406 109.054688 221.515625 115.382812 C 227.875 121.753906 229.660156 130.933594 226.910156 138.898438 L 259.84375 171.832031 C 267.804688 169.082031 276.996094 170.859375 283.367188 177.230469 C 292.253906 186.117188 292.253906 200.53125 283.367188 209.421875 C 274.464844 218.320312 260.0625 218.320312 251.164062 209.421875 C 244.46875 202.722656 242.820312 192.90625 246.207031 184.667969 L 215.503906 153.957031 L 215.492188 234.765625 C 217.660156 235.84375 219.703125 237.269531 221.515625 239.070312 C 230.402344 247.957031 230.402344 262.371094 221.515625 271.269531 C 212.625 280.160156 198.199219 280.160156 189.324219 271.269531 C 180.433594 262.371094 180.433594 247.957031 189.324219 239.070312 C 191.515625 236.875 194.058594 235.214844 196.773438 234.101562 L 196.773438 152.542969 C 194.058594 151.433594 191.527344 149.785156 189.324219 147.574219 C 182.582031 140.847656 180.96875 130.960938 184.414062 122.6875 L 150.742188 89.003906 L 61.804688 177.9375 C 54.332031 185.410156 54.332031 197.527344 61.804688 205 L 191.507812 334.699219 C 198.980469 342.164062 211.09375 342.164062 218.566406 334.699219 L 347.667969 205.601562 C 355.140625 198.128906 355.140625 186.003906 347.667969 178.527344 "/>
</g>
</svg>
