<?xml version="1.0" encoding="UTF-8"?>
<svg xmlns="http://www.w3.org/2000/svg" xmlns:xlink="http://www.w3.org/1999/xlink" width="375pt" height="374.999991pt" viewBox="0 0 375 374.999991" version="1.2">
<defs>
<clipPath id="clip1">
  <path d="M 75.964844 112 L 298.714844 112 L 298.714844 294.980469 L 75.964844 294.980469 Z M 75.964844 112 "/>
</clipPath>
<clipPath id="clip2">
  <path d="M 181 79.730469 L 278 79.730469 L 278 270 L 181 270 Z M 181 79.730469 "/>
</clipPath>
</defs>
<g id="surface1">
<rect x="0" y="0" width="375" height="374.999991" style="fill:rgb(100%,100%,100%);fill-opacity:1;stroke:none;"/>
<rect x="0" y="0" width="375" height="374.999991" style="fill:rgb(100%,100%,100%);fill-opacity:1;stroke:none;"/>
<rect x="0" y="0" width="375" height="374.999991" style="fill:rgb(97.24884%,87.059021%,80.778503%);fill-opacity:1;stroke:none;"/>
<path style=" stroke:none;fill-rule:nonzero;fill:rgb(42.749023%,29.019165%,16.468811%);fill-opacity:1;" d="M 286.007812 291.40625 L 88.433594 291.40625 C 83.5625 291.40625 79.609375 287.457031 79.609375 282.582031 L 79.609375 125.113281 C 79.609375 120.242188 83.5625 116.289062 88.433594 116.289062 L 286.011719 116.289062 C 290.886719 116.289062 294.835938 120.242188 294.835938 125.113281 L 294.835938 282.582031 C 294.835938 287.457031 290.886719 291.40625 286.007812 291.40625 Z M 286.007812 291.40625 "/>
<g clip-path="url(#clip1)" clip-rule="nonzero">
<path style=" stroke:none;fill-rule:nonzero;fill:rgb(12.159729%,12.939453%,16.859436%);fill-opacity:1;" d="M 286.011719 295.054688 L 88.433594 295.054688 C 81.558594 295.054688 75.964844 289.460938 75.964844 282.582031 L 75.964844 125.113281 C 75.964844 118.238281 81.558594 112.640625 88.433594 112.640625 L 286.011719 112.640625 C 292.886719 112.640625 298.484375 118.238281 298.484375 125.113281 L 298.484375 282.582031 C 298.484375 289.460938 292.886719 295.054688 286.011719 295.054688 Z M 88.433594 119.9375 C 85.582031 119.9375 83.257812 122.261719 83.257812 125.113281 L 83.257812 282.582031 C 83.257812 285.4375 85.582031 287.761719 88.433594 287.761719 L 286.011719 287.761719 C 288.863281 287.761719 291.1875 285.4375 291.1875 282.582031 L 291.1875 125.113281 C 291.1875 122.261719 288.863281 119.9375 286.011719 119.9375 Z M 88.433594 119.9375 "/>
</g>
<path style=" stroke:none;fill-rule:nonzero;fill:rgb(78.039551%,87.449646%,94.509888%);fill-opacity:1;" d="M 99.675781 136.355469 L 274.773438 136.355469 L 274.773438 271.34375 L 99.675781 271.34375 Z M 99.675781 136.355469 "/>
<path style=" stroke:none;fill-rule:nonzero;fill:rgb(12.159729%,12.939453%,16.859436%);fill-opacity:1;" d="M 276.597656 273.167969 L 97.851562 273.167969 L 97.851562 134.53125 L 276.597656 134.53125 Z M 101.5 269.519531 L 272.949219 269.519531 L 272.949219 138.179688 L 101.5 138.179688 Z M 101.5 269.519531 "/>
<path style=" stroke:none;fill-rule:nonzero;fill:rgb(97.648621%,90.19928%,36.079407%);fill-opacity:1;" d="M 150.746094 150.949219 C 149.785156 150.949219 148.839844 151.042969 147.898438 151.230469 C 146.957031 151.414062 146.046875 151.691406 145.160156 152.058594 C 144.277344 152.425781 143.433594 152.875 142.636719 153.40625 C 141.839844 153.941406 141.105469 154.546875 140.425781 155.222656 C 139.75 155.898438 139.144531 156.636719 138.613281 157.433594 C 138.082031 158.230469 137.628906 159.070312 137.265625 159.957031 C 136.898438 160.84375 136.621094 161.753906 136.433594 162.695312 C 136.246094 163.632812 136.152344 164.582031 136.152344 165.542969 C 136.152344 166.5 136.246094 167.449219 136.433594 168.386719 C 136.621094 169.328125 136.898438 170.242188 137.265625 171.125 C 137.628906 172.011719 138.082031 172.851562 138.613281 173.648438 C 139.144531 174.445312 139.75 175.183594 140.425781 175.859375 C 141.105469 176.539062 141.839844 177.144531 142.636719 177.675781 C 143.433594 178.207031 144.277344 178.65625 145.160156 179.023438 C 146.046875 179.390625 146.957031 179.667969 147.898438 179.855469 C 148.839844 180.042969 149.785156 180.136719 150.746094 180.136719 C 151.703125 180.136719 152.652344 180.042969 153.589844 179.855469 C 154.53125 179.667969 155.445312 179.390625 156.328125 179.023438 C 157.214844 178.65625 158.054688 178.207031 158.851562 177.675781 C 159.648438 177.144531 160.386719 176.539062 161.0625 175.859375 C 161.738281 175.183594 162.34375 174.445312 162.878906 173.648438 C 163.410156 172.851562 163.859375 172.011719 164.226562 171.125 C 164.59375 170.242188 164.871094 169.328125 165.054688 168.386719 C 165.242188 167.449219 165.335938 166.5 165.335938 165.542969 C 165.335938 164.582031 165.242188 163.632812 165.054688 162.695312 C 164.871094 161.753906 164.59375 160.84375 164.226562 159.957031 C 163.859375 159.070312 163.410156 158.230469 162.878906 157.433594 C 162.34375 156.636719 161.738281 155.898438 161.0625 155.222656 C 160.386719 154.546875 159.648438 153.941406 158.851562 153.40625 C 158.054688 152.875 157.214844 152.425781 156.328125 152.058594 C 155.445312 151.691406 154.53125 151.414062 153.589844 151.230469 C 152.652344 151.042969 151.703125 150.949219 150.746094 150.949219 Z M 150.746094 150.949219 "/>
<path style=" stroke:none;fill-rule:nonzero;fill:rgb(12.159729%,12.939453%,16.859436%);fill-opacity:1;" d="M 150.746094 181.960938 C 141.695312 181.960938 134.328125 174.59375 134.328125 165.542969 C 134.328125 156.488281 141.695312 149.125 150.746094 149.125 C 159.796875 149.125 167.160156 156.488281 167.160156 165.542969 C 167.160156 174.59375 159.796875 181.960938 150.746094 181.960938 Z M 150.746094 152.773438 C 143.703125 152.773438 137.976562 158.5 137.976562 165.542969 C 137.976562 172.582031 143.703125 178.3125 150.746094 178.3125 C 157.785156 178.3125 163.511719 172.582031 163.511719 165.542969 C 163.511719 158.5 157.78125 152.773438 150.746094 152.773438 Z M 150.746094 152.773438 "/>
<path style=" stroke:none;fill-rule:nonzero;fill:rgb(0%,65.489197%,65.489197%);fill-opacity:1;" d="M 135.75 271.34375 L 202.972656 171.800781 C 204.320312 169.808594 207.316406 169.785156 208.699219 171.753906 L 274.773438 265.644531 L 274.773438 271.34375 Z M 135.75 271.34375 "/>
<path style=" stroke:none;fill-rule:nonzero;fill:rgb(12.159729%,12.939453%,16.859436%);fill-opacity:1;" d="M 276.597656 273.167969 L 132.316406 273.167969 L 201.457031 170.78125 C 202.4375 169.34375 204.058594 168.480469 205.808594 168.472656 C 205.824219 168.46875 205.835938 168.46875 205.851562 168.46875 C 207.585938 168.46875 209.207031 169.304688 210.1875 170.707031 L 276.59375 265.0625 L 276.59375 273.167969 Z M 139.183594 269.519531 L 272.949219 269.519531 L 272.949219 266.21875 L 207.203125 172.804688 C 206.898438 172.367188 206.40625 172.117188 205.851562 172.117188 C 205.847656 172.117188 205.84375 172.117188 205.84375 172.117188 C 205.277344 172.125 204.78125 172.378906 204.476562 172.828125 Z M 139.183594 269.519531 "/>
<path style=" stroke:none;fill-rule:nonzero;fill:rgb(0%,65.489197%,65.489197%);fill-opacity:1;" d="M 100.035156 231.359375 L 130.164062 198.167969 C 132.121094 196.011719 135.628906 196.175781 137.359375 198.507812 L 161.792969 231.359375 L 135.746094 271.34375 L 99.671875 271.34375 Z M 100.035156 231.359375 "/>
<path style=" stroke:none;fill-rule:nonzero;fill:rgb(12.159729%,12.939453%,16.859436%);fill-opacity:1;" d="M 136.742188 273.167969 L 97.832031 273.167969 L 98.21875 230.648438 L 128.8125 196.941406 C 130.117188 195.503906 131.949219 194.765625 133.945312 194.832031 C 135.894531 194.929688 137.675781 195.875 138.828125 197.425781 L 164.015625 231.296875 Z M 101.515625 269.519531 L 134.761719 269.519531 L 159.574219 231.429688 L 135.902344 199.597656 C 135.402344 198.921875 134.625 198.519531 133.769531 198.476562 C 132.925781 198.410156 132.082031 198.765625 131.515625 199.390625 L 101.855469 232.070312 Z M 101.515625 269.519531 "/>
<path style=" stroke:none;fill-rule:nonzero;fill:rgb(0%,65.489197%,65.489197%);fill-opacity:1;" d="M 228.03125 197.847656 L 250.707031 171.175781 C 252.234375 169.382812 255.039062 169.519531 256.378906 171.449219 L 274.769531 197.847656 L 275.570312 264.21875 Z M 228.03125 197.847656 "/>
<g clip-path="url(#clip2)" clip-rule="nonzero">
<path style=" stroke:none;fill-rule:nonzero;fill:rgb(12.159729%,12.939453%,16.859436%);fill-opacity:1;" d="M 277.464844 269.992188 L 225.71875 197.75 L 249.316406 169.992188 C 250.414062 168.703125 252.050781 168.058594 253.699219 168.09375 C 255.386719 168.171875 256.910156 169.015625 257.878906 170.40625 L 276.589844 197.261719 Z M 230.34375 197.941406 L 273.675781 258.441406 L 272.957031 198.429688 L 254.886719 172.496094 C 254.570312 172.042969 254.074219 171.765625 253.523438 171.738281 C 252.972656 171.730469 252.457031 171.941406 252.097656 172.359375 Z M 187.222656 90.75 C 184.207031 90.75 181.753906 88.296875 181.753906 85.277344 C 181.753906 82.261719 184.207031 79.804688 187.222656 79.804688 C 190.242188 79.804688 192.695312 82.261719 192.695312 85.277344 C 192.695312 88.296875 190.242188 90.75 187.222656 90.75 Z M 187.222656 83.453125 C 186.21875 83.453125 185.398438 84.277344 185.398438 85.277344 C 185.398438 86.28125 186.21875 87.101562 187.222656 87.101562 C 188.226562 87.101562 189.046875 86.28125 189.046875 85.277344 C 189.046875 84.277344 188.226562 83.453125 187.222656 83.453125 Z M 187.222656 83.453125 "/>
</g>
<path style=" stroke:none;fill-rule:nonzero;fill:rgb(12.159729%,12.939453%,16.859436%);fill-opacity:1;" d="M 151.09375 115.832031 C 150.570312 115.832031 150.054688 115.605469 149.691406 115.175781 C 149.046875 114.398438 149.15625 113.25 149.925781 112.605469 L 182.523438 85.46875 C 183.300781 84.832031 184.449219 84.9375 185.097656 85.703125 C 185.738281 86.480469 185.632812 87.628906 184.863281 88.273438 L 152.261719 115.410156 C 151.921875 115.695312 151.511719 115.832031 151.09375 115.832031 Z M 224.074219 115.832031 C 223.664062 115.832031 223.246094 115.695312 222.90625 115.414062 L 190.308594 88.277344 C 189.535156 87.632812 189.433594 86.484375 190.078125 85.707031 C 190.730469 84.9375 191.875 84.835938 192.648438 85.472656 L 225.246094 112.609375 C 226.019531 113.253906 226.121094 114.402344 225.480469 115.179688 C 225.113281 115.609375 224.601562 115.832031 224.074219 115.832031 Z M 224.074219 115.832031 "/>
</g>
</svg>
